<svg width="120" height="180" viewBox="0 0 120 180" fill="none" xmlns="http://www.w3.org/2000/svg">
  <path class="perimeter" d="M64.3,178.6h-8.5c-14.6,0-25.4-4.8-32.3-14.1c-4.7-6.5-7.1-14.8-7.1-24.8v-100c0-3.2,0.3-6.3,1-9.4
        C20.4,16.4,30,6.4,43.8,2.9c4.1-1,8.4-1.5,12.6-1.5h7.2c4.2,0,8.5,0.5,12.6,1.5C90,6.4,99.6,16.4,102.6,30.2c0.7,3.1,1,6.2,1,9.4
        v100c0,10-2.4,18.4-7.1,24.8C89.7,173.8,78.8,178.6,64.3,178.6z M56.4,3.3c-4.1,0-8.2,0.5-12.2,1.4c-13,3.4-22.2,12.8-25,25.9
        c-0.6,3-1,6-1,9v100c0,9.6,2.3,17.6,6.7,23.7c6.5,8.9,16.8,13.4,30.8,13.4h8.5c13.9,0,24.3-4.5,30.8-13.4c4.5-6.1,6.7-14.1,6.7-23.7
        v-100c0-3-0.3-6-1-9C98,17.5,88.8,8.1,75.8,4.7c-4-1-8.1-1.5-12.2-1.4C63.6,3.3,56.4,3.3,56.4,3.3z"
        fill="#4cb2f1" fill-opacity="0.3"/>
</svg>
