<svg width="120" height="180" viewBox="0 0 120 180" fill="none" xmlns="http://www.w3.org/2000/svg">
  <path d="M84.4,65.2L84.4,65.2c-0.4,0-0.6-0.2-0.8-0.4c-0.8-1.3-5.6-7.4-23.7-7.4S37,63.5,36.2,64.8c-0.2,0.3-0.4,0.4-0.7,0.4
s-0.6-0.1-0.8-0.3l-1.1-1.3c-0.4-0.4-0.6-1-0.6-1.5V40.8c0-2.2,0.2-4.4,0.6-6.5c0.3-1.7,0.8-3.3,1.4-4.9l0.1-0.1l0.1-0.1
c3.3-2.8,6.3-6.1,8.7-9.7l0.1-0.1l0.1-0.1c2.1-1.7,8.8-2.8,12.4-2.8h6.7c3.6,0,10.3,1.1,12.4,2.8l0.1,0.1l0.1,0.1
c2.4,3.6,5.4,6.9,8.7,9.7l0.1,0.1l0.1,0.1c0.6,1.6,1.1,3.2,1.5,4.9l0,0c0.4,2.1,0.6,4.3,0.6,6.5V62c0,0.6-0.2,1.1-0.6,1.5l-1.1,1.3
C85,65.1,84.7,65.2,84.4,65.2z" fill="#ff9800" fill-opacity="0.7"/>
</svg>
